# xmcd
#
# Track frame offsets:
#	150
#	24479
#	33689
#	56189
#	86049
#	106425
#	128175
#	150840
#	166526
#	176351
#	218803
#	237303
#	259445
#	277546
#
# Disc length: 3846 seconds
#
# Revision: 0
# Processed by: cddbd v1.5.2PL0 Copyright (c) Steve Scherf et al.
# Submitted via: EasyCDDAExtractor 16.0.6.1
#
DISCID=b40f040e
DTITLE=Συλλογικός δίσκος - Παραδώσου-Τρ. εν είδει παραδαδοσιακά
DYEAR=2006
DGENRE=Ποικίλη
TTITLE0=Παπάζογλου Νίκος - Απ' τον πουνέντη
TTITLE1=Κανά Μελίνα - Συ μού 'μαθες, πώς αγαπούν
TTITLE2=Στασινοπούλου Κρίστη - Αμοργιανό μου πέραμα
TTITLE3=Mode Plagal - Πικροδάφνη (... ένα blues)
TTITLE4=Άνευ ερμηνευτού - Ικαριώτικος (dry mix) [Palyrria, ορχηστρικό]
TTITLE5=Κρόταλα - Προκόπης
TTITLE6=Άνευ ερμηνευτού - Σκεπαστή αγορά (Παζάρι) [κλ. Μάνος Αχαλινωτόπουλος]
TTITLE7=Ψαραντώνης - Η τίγρη
TTITLE8=Άνευ ερμηνευτού - Reg Dub [Dudient, ορχηστρικό]
TTITLE9=Γράψας Νίκος-Μαραβάς Γιάννης - Τούρνα [Αστυπάλαια]
TTITLE10=Δυνάμεις του Αιγαίου - Κόκκινα χείλη φίλησα [Δημοτικά δίστιχα, Ν. Γρά
TTITLE10=ψας]
TTITLE11=Λημνίου Ιωάννα - Ο ήλιος και το φεγγάρι
TTITLE12=Καλημέρη Λιζέτα - Νά 'μαν πουλί
TTITLE13=Παπάζογλου Νίκος - Άτιτλο [επί πλέον]
EXTD=
EXTT0=
EXTT1=
EXTT2=
EXTT3=
EXTT4=
EXTT5=
EXTT6=
EXTT7=
EXTT8=
EXTT9=
EXTT10=
EXTT11=
EXTT12=
EXTT13=
PLAYORDER=
